<?xml version="1.0" encoding="utf-8"?>
<!-- Generator: Adobe Illustrator 19.1.0, SVG Export Plug-In . SVG Version: 6.00 Build 0)  -->
<svg version="1.1" id="Layer_1" xmlns="http://www.w3.org/2000/svg" xmlns:xlink="http://www.w3.org/1999/xlink" x="0px" y="0px"
	 viewBox="0 0 1271.5 260" style="enable-background:new 0 0 1271.5 260;" xml:space="preserve">
<style type="text/css">
	.st0{fill:none;}
	.st1{fill:#73AFAD;}
	.st2{font-family:'Vonique92';}
	.st3{font-size:200px;}
	.st4{fill:#555350;}
	.st5{font-size:285px;}
</style>
<rect x="6.7" y="-33.8" class="st0" width="1308.9" height="333.9"/>
<text transform="matrix(1 0 0 1 6.7022 211.5342)"><tspan x="0" y="0" class="st1 st2 st3">W</tspan><tspan x="195.5" y="0" class="st4 st2 st3">EBBSKILL</tspan><tspan x="1087.8" y="0" class="st1 st2 st5">Z</tspan></text>
<g>
	<path class="st4" d="M1085,122.8c-2-1.4-2.2-3.6-2.2-3.6l-0.7-4.7h-23.3l-0.7,4.7c0,0-0.2,2.2-2.2,3.6c-1.9,1.4-3.5,2.7-1.9,2.9
		c1.5,0.2,15.5,0,16.5,0c1,0,15,0.2,16.5,0C1088.5,125.4,1086.9,124.2,1085,122.8z"/>
	<path class="st4" d="M1030.8,83.6c0-2.2-1.8-3.9-3.9-3.9h-18.6c-2.2,0-3.9,1.8-3.9,3.9v41.1c0,2.2,1.8,3.9,3.9,3.9h18.6
		c2.2,0,3.9-1.8,3.9-3.9L1030.8,83.6L1030.8,83.6z M1015.6,84h3.9c0.3,0,0.5,0.2,0.5,0.5c0,0.3-0.2,0.5-0.5,0.5h-3.9
		c-0.3,0-0.5-0.2-0.5-0.5C1015.1,84.3,1015.3,84,1015.6,84z M1017.4,126.3c-1.1,0-2-0.9-2-2c0-1.1,0.9-2,2-2c1.1,0,2,0.9,2,2
		C1019.4,125.4,1018.5,126.3,1017.4,126.3z M1028.3,120.7h-21.5V88h21.5L1028.3,120.7L1028.3,120.7z"/>
	<path class="st4" d="M1153.2,57.1h-40.3c-3,0-5.5,2.5-5.5,5.5v57.6c0,3,2.5,5.5,5.5,5.5h40.3c3,0,5.5-2.5,5.5-5.5V62.6
		C1158.7,59.6,1156.2,57.1,1153.2,57.1z M1125.2,122.7c-1.5,0-2.7-1.2-2.7-2.7c0-1.5,1.2-2.7,2.7-2.7c1.5,0,2.7,1.2,2.7,2.7
		C1127.9,121.5,1126.7,122.7,1125.2,122.7z M1133.1,122.7c-1.5,0-2.7-1.2-2.7-2.7c0-1.5,1.2-2.7,2.7-2.7c1.5,0,2.7,1.2,2.7,2.7
		C1135.8,121.5,1134.6,122.7,1133.1,122.7z M1141,122.7c-1.5,0-2.7-1.2-2.7-2.7c0-1.5,1.2-2.7,2.7-2.7c1.5,0,2.7,1.2,2.7,2.7
		C1143.7,121.5,1142.5,122.7,1141,122.7z M1155.3,114.8h-44.4V61.9h44.4V114.8L1155.3,114.8z"/>
	<path class="st4" d="M1119.9,52.5h6.8V40.3c0-2.5-2-4.5-4.5-4.5h-103.5c-2.5,0-4.5,2-4.5,4.5V75h6.8V42.5h99V52.5L1119.9,52.5z"/>
	<path class="st4" d="M1035.4,96.5V110h67.4V96.5H1035.4z M1070.4,106.3c-1.7,0-3.1-1.4-3.1-3.1c0-1.7,1.4-3.1,3.1-3.1
		c1.7,0,3.1,1.4,3.1,3.1C1073.5,105,1072.1,106.3,1070.4,106.3z"/>
</g>
</svg>
